<?xml version="1.0" encoding="UTF-8" standalone="no"?>
<!-- Created with Inkscape (http://www.inkscape.org/) -->

<svg
        xmlns:dc="http://purl.org/dc/elements/1.1/"
        xmlns:cc="http://creativecommons.org/ns#"
        xmlns:rdf="http://www.w3.org/1999/02/22-rdf-syntax-ns#"
        xmlns:svg="http://www.w3.org/2000/svg"
        xmlns="http://www.w3.org/2000/svg"
        xmlns:sodipodi="http://sodipodi.sourceforge.net/DTD/sodipodi-0.dtd"
        xmlns:inkscape="http://www.inkscape.org/namespaces/inkscape"
        width="175.66922mm"
        height="61.709248mm"
        viewBox="0 0 175.66922 61.709248"
        version="1.1"
        id="svg8"
        inkscape:version="0.92.4 (5da689c313, 2019-01-14)"
        sodipodi:docname="bigCorpLogo.svg">
    <defs
            id="defs2" />
    <sodipodi:namedview
            id="base"
            pagecolor="#ffffff"
            bordercolor="#666666"
            borderopacity="1.0"
            inkscape:pageopacity="0.0"
            inkscape:pageshadow="2"
            inkscape:zoom="0.98994949"
            inkscape:cx="602.40709"
            inkscape:cy="25.346272"
            inkscape:document-units="mm"
            inkscape:current-layer="layer1"
            showgrid="false"
            inkscape:window-width="1920"
            inkscape:window-height="1001"
            inkscape:window-x="-9"
            inkscape:window-y="-9"
            inkscape:window-maximized="1" />
    <metadata
            id="metadata5">
        <rdf:RDF>
            <cc:Work
                    rdf:about="">
                <dc:format>image/svg+xml</dc:format>
                <dc:type
                        rdf:resource="http://purl.org/dc/dcmitype/StillImage" />
                <dc:title></dc:title>
            </cc:Work>
        </rdf:RDF>
    </metadata>
    <g
            inkscape:label="Calque 1"
            inkscape:groupmode="layer"
            id="layer1"
            transform="translate(-20.438206,-23.229578)">
        <path
                style="fill:#000000;fill-opacity:1;stroke:none;stroke-width:0.13723335;stroke-linecap:butt;stroke-linejoin:miter;stroke-miterlimit:4;stroke-dasharray:none;stroke-opacity:1"
                d="m 97.163361,27.278578 c 1.190433,-0.48346 2.246126,-1.02081 3.737029,-1.38408 l 8.16612,-2.21454 c 4.54084,-0.36538 9.08139,-0.72851 13.49484,-0.13842 l 3.94465,5.25954 0.83045,0.76124 3.19093,1.06738 h 2.1042 l 2.49567,-2.20207 1.37018,0.19574 0.73403,-0.83189 0.78295,0.63615 -0.63615,1.22338 0.39148,1.1255 -1.32124,2.64248 2.54461,1.66378 3.32757,0.8319 5.83758,0.0778 c 0.6816,0.39038 1.26718,0.84082 1.74931,1.40882 6.39426,7.533013 9.78443,17.249229 9.29564,17.646854 0.006,0.603515 -0.45677,0.983338 -1.41912,1.1255 -1.32014,-1.033132 -1.65258,-0.72581 -2.3978,-0.978695 l -5.20932,-4.279552 c -0.23407,-0.462872 -0.534,-0.820485 -0.71477,-1.426066 -1.06661,-1.244714 -3.45039,-3.838826 -4.89052,-4.593431 -1.91718,-0.503541 -4.90551,-0.941502 -8.41679,-1.347446 -1.46945,-0.463784 -2.84074,-0.947202 -4.14723,-1.443578 l -3.1196,2.838221 c -0.40776,0.818861 -0.93577,1.565569 -1.1989,2.47121 l -0.34254,1.223371 c -0.35288,0.214452 -0.76126,0.438155 -1.30901,0.685088 -1.15164,-0.0487 -2.15239,-0.204451 -3.1196,-0.391479 -1.34289,-0.943765 -3.24099,-1.841957 -3.76798,-2.960559 2.56078,-3.624465 3.72647,-4.286369 5.3339,-5.603039 0.18957,-0.230925 0.37108,-0.837611 0.56886,-1.278419 l -3.77409,-2.44063 c -1.19993,-1.10153 -2.47928,-2.1713 -3.90937,-3.18076 l -3.03938,-1.32125 c -0.32544,-0.47009 -0.49166,-1.00387 -0.58722,-1.56591 -5.40725,-0.37053 -12.43806,0.1952 -15.854893,-1.71272 0.06151,-0.12706 0.158196,-0.24455 0.146805,-0.39148 -0.02652,-0.13546 -0.15493,-0.19813 -0.29382,-0.25332 -0.177931,-0.0756 -0.281399,0.0475 -0.415736,0.0882 -0.150387,-0.17402 -0.331947,-0.96231 -0.161725,-1.03284 z"
                id="path3724"
                inkscape:connector-curvature="0"
                sodipodi:nodetypes="ccccccccccccccccccsccccccccccccccccccccccccc" />
        <text
                xml:space="preserve"
                style="font-style:normal;font-variant:normal;font-weight:bold;font-stretch:normal;font-size:64.62049103px;line-height:1.25;font-family:Calibri;-inkscape-font-specification:'Calibri Bold';letter-spacing:0px;word-spacing:0px;fill:#000000;fill-opacity:1;stroke:none;stroke-width:0.16155119"
                x="15.47417"
                y="80.221573"
                id="text4533"
                transform="scale(1.0258527,0.97479881)"><tspan
         sodipodi:role="line"
         id="tspan4531"
         x="15.47417"
         y="80.221573"
         style="font-style:normal;font-variant:normal;font-weight:bold;font-stretch:normal;font-size:64.62049103px;font-family:Calibri;-inkscape-font-specification:'Calibri Bold';fill:#000000;fill-opacity:1;stroke-width:0.16155119">BIG</tspan></text>
        <text
                xml:space="preserve"
                style="font-style:normal;font-weight:normal;font-size:40.26366043px;line-height:1.25;font-family:sans-serif;letter-spacing:0px;word-spacing:0px;fill:#000000;fill-opacity:1;stroke:none;stroke-width:0.20970656"
                x="113.38498"
                y="74.858551"
                id="text826"
                transform="scale(0.97992534,1.0204859)"><tspan
         sodipodi:role="line"
         id="tspan824"
         x="113.38498"
         y="74.858551"
         style="font-size:40.26366043px;stroke-width:0.20970656">corp</tspan></text>
    </g>
</svg>
